<mxfile host="app.diagrams.net" agent="Mozilla/5.0 (Windows NT 10.0; Win64; x64) AppleWebKit/537.36 (KHTML, like Gecko) Chrome/131.0.0.0 Safari/537.36" version="24.8.6">
  <diagram name="Seite-1" id="GXxQywnVWwiY1Pih3j74">
    <mxGraphModel dx="472" dy="771" grid="1" gridSize="10" guides="1" tooltips="1" connect="1" arrows="1" fold="1" page="1" pageScale="1" pageWidth="827" pageHeight="1169" math="0" shadow="0">
      <root>
        <mxCell id="0" />
        <mxCell id="1" parent="0" />
        <mxCell id="CfrQcP3zfwKJ1TcmI3UQ-11" value="" style="group" parent="1" vertex="1" connectable="0">
          <mxGeometry x="40" y="160" width="160" height="90" as="geometry" />
        </mxCell>
        <mxCell id="CfrQcP3zfwKJ1TcmI3UQ-4" value="" style="rounded=0;whiteSpace=wrap;html=1;fillColor=#fff2cc;strokeColor=#d6b656;" parent="CfrQcP3zfwKJ1TcmI3UQ-11" vertex="1">
          <mxGeometry width="160" height="90" as="geometry" />
        </mxCell>
        <mxCell id="CfrQcP3zfwKJ1TcmI3UQ-5" value="GrundstrukturSkill (FB)" style="rounded=0;whiteSpace=wrap;html=1;fillColor=#ffe6cc;strokeColor=#d79b00;" parent="CfrQcP3zfwKJ1TcmI3UQ-11" vertex="1">
          <mxGeometry width="160" height="30" as="geometry" />
        </mxCell>
        <mxCell id="CfrQcP3zfwKJ1TcmI3UQ-6" value="Variablendeklaration der Grundstruktur" style="rounded=0;whiteSpace=wrap;html=1;fillColor=#fff2cc;strokeColor=#d6b656;fontStyle=2" parent="CfrQcP3zfwKJ1TcmI3UQ-11" vertex="1">
          <mxGeometry x="10" y="40" width="140" height="40" as="geometry" />
        </mxCell>
        <mxCell id="CfrQcP3zfwKJ1TcmI3UQ-12" value="" style="group" parent="1" vertex="1" connectable="0">
          <mxGeometry x="40" y="40" width="160" height="80" as="geometry" />
        </mxCell>
        <mxCell id="CfrQcP3zfwKJ1TcmI3UQ-1" value="" style="rounded=0;whiteSpace=wrap;html=1;fillColor=#dae8fc;strokeColor=#6c8ebf;" parent="CfrQcP3zfwKJ1TcmI3UQ-12" vertex="1">
          <mxGeometry width="160" height="80" as="geometry" />
        </mxCell>
        <mxCell id="CfrQcP3zfwKJ1TcmI3UQ-2" value="I_State_Skill (Schnittstelle)" style="rounded=0;whiteSpace=wrap;html=1;fillColor=#A9C4EB;strokeColor=#6c8ebf;" parent="CfrQcP3zfwKJ1TcmI3UQ-12" vertex="1">
          <mxGeometry width="160" height="30" as="geometry" />
        </mxCell>
        <mxCell id="CfrQcP3zfwKJ1TcmI3UQ-3" value="P_State (GET)" style="rounded=0;whiteSpace=wrap;html=1;fillColor=#dae8fc;strokeColor=#6c8ebf;fontStyle=2" parent="CfrQcP3zfwKJ1TcmI3UQ-12" vertex="1">
          <mxGeometry x="10" y="40" width="140" height="30" as="geometry" />
        </mxCell>
        <mxCell id="CfrQcP3zfwKJ1TcmI3UQ-18" value="" style="group" parent="1" vertex="1" connectable="0">
          <mxGeometry x="80" y="330" width="160" height="90" as="geometry" />
        </mxCell>
        <mxCell id="CfrQcP3zfwKJ1TcmI3UQ-19" value="" style="rounded=0;whiteSpace=wrap;html=1;fillColor=#fff2cc;strokeColor=#d6b656;" parent="CfrQcP3zfwKJ1TcmI3UQ-18" vertex="1">
          <mxGeometry width="160" height="90" as="geometry" />
        </mxCell>
        <mxCell id="CfrQcP3zfwKJ1TcmI3UQ-20" value="" style="rounded=0;whiteSpace=wrap;html=1;fillColor=#ffe6cc;strokeColor=#d79b00;" parent="CfrQcP3zfwKJ1TcmI3UQ-18" vertex="1">
          <mxGeometry width="160" height="30" as="geometry" />
        </mxCell>
        <mxCell id="CfrQcP3zfwKJ1TcmI3UQ-13" value="" style="group" parent="1" vertex="1" connectable="0">
          <mxGeometry x="60" y="310" width="160" height="90" as="geometry" />
        </mxCell>
        <mxCell id="CfrQcP3zfwKJ1TcmI3UQ-14" value="" style="rounded=0;whiteSpace=wrap;html=1;fillColor=#fff2cc;strokeColor=#d6b656;" parent="CfrQcP3zfwKJ1TcmI3UQ-13" vertex="1">
          <mxGeometry width="160" height="90" as="geometry" />
        </mxCell>
        <mxCell id="CfrQcP3zfwKJ1TcmI3UQ-15" value="" style="rounded=0;whiteSpace=wrap;html=1;fillColor=#ffe6cc;strokeColor=#d79b00;" parent="CfrQcP3zfwKJ1TcmI3UQ-13" vertex="1">
          <mxGeometry width="160" height="30" as="geometry" />
        </mxCell>
        <mxCell id="CfrQcP3zfwKJ1TcmI3UQ-7" value="" style="rounded=0;whiteSpace=wrap;html=1;fillColor=#fff2cc;strokeColor=#d6b656;" parent="1" vertex="1">
          <mxGeometry x="40" y="290" width="160" height="90" as="geometry" />
        </mxCell>
        <mxCell id="CfrQcP3zfwKJ1TcmI3UQ-8" value="Skill (FB)" style="rounded=0;whiteSpace=wrap;html=1;fillColor=#ffe6cc;strokeColor=#d79b00;" parent="1" vertex="1">
          <mxGeometry x="40" y="290" width="160" height="30" as="geometry" />
        </mxCell>
        <mxCell id="CfrQcP3zfwKJ1TcmI3UQ-9" value="Prozessspezifische Funktionen / Variablen" style="rounded=0;whiteSpace=wrap;html=1;fillColor=#fff2cc;strokeColor=#d6b656;fontStyle=2" parent="1" vertex="1">
          <mxGeometry x="50" y="330" width="140" height="40" as="geometry" />
        </mxCell>
        <mxCell id="CfrQcP3zfwKJ1TcmI3UQ-21" style="edgeStyle=orthogonalEdgeStyle;rounded=0;orthogonalLoop=1;jettySize=auto;html=1;entryX=0.5;entryY=0;entryDx=0;entryDy=0;" parent="1" source="CfrQcP3zfwKJ1TcmI3UQ-1" target="CfrQcP3zfwKJ1TcmI3UQ-5" edge="1">
          <mxGeometry relative="1" as="geometry" />
        </mxCell>
        <mxCell id="CfrQcP3zfwKJ1TcmI3UQ-22" style="edgeStyle=orthogonalEdgeStyle;rounded=0;orthogonalLoop=1;jettySize=auto;html=1;entryX=0.5;entryY=0;entryDx=0;entryDy=0;" parent="1" source="CfrQcP3zfwKJ1TcmI3UQ-4" target="CfrQcP3zfwKJ1TcmI3UQ-8" edge="1">
          <mxGeometry relative="1" as="geometry" />
        </mxCell>
        <mxCell id="CfrQcP3zfwKJ1TcmI3UQ-23" value="IMPLEMENTS" style="text;html=1;align=left;verticalAlign=middle;whiteSpace=wrap;rounded=0;" parent="1" vertex="1">
          <mxGeometry x="122" y="124" width="86" height="30" as="geometry" />
        </mxCell>
        <mxCell id="CfrQcP3zfwKJ1TcmI3UQ-24" value="EXTENDS" style="text;html=1;align=left;verticalAlign=middle;whiteSpace=wrap;rounded=0;" parent="1" vertex="1">
          <mxGeometry x="122" y="255" width="86" height="30" as="geometry" />
        </mxCell>
      </root>
    </mxGraphModel>
  </diagram>
</mxfile>
